# xmcd
#
# Track frame offsets:
#	150
#	16853
#	33978
#	50044
#	71498
#	84998
#	102959
#	120568
#	134861
#	152724
#	169535
#	185975
#	200541
#	212879
#	229536
#	249951
#	264046
#	281579
#
# Disc length: 3948
#
# Revision: 2
# Processed by: cddbd v1.5.1PL0 Copyright (c) Steve Scherf et al.
# Submitted via: CDex 1.30Release
# Normalized: r1:DSETVAR1,TDELIM( - )
#
DISCID=f90f6a12
DTITLE=Various Artist - CDX Volume 320 - June 2003
DYEAR=2003
DGENRE=Country
TTITLE0=Warren Brothers - Break The Record
TTITLE1=Ashley Gearing - Can You Hear Me When I Talk To You?
TTITLE2=Chris Cagle - Chicks Do It
TTITLE3=Dixie Chicks - Godspeed (Sweet Dreams)
TTITLE4=Marty Stuart - If There Ain't There Ought'a Be
TTITLE5=Rascal Flatts - I Melt
TTITLE6=Dolly Parton - I'm Gone (single edit)
TTITLE7=Phil Vassar - Ultimate Love
TTITLE8=Lee Greenwood - When A Woman's In Love
TTITLE9=Keith Urban - Who Wouldn't Wanna Be Me (edit)
TTITLE10=Crystal Gayle - You Don't Even Know My Name
TTITLE11=Billy Walker - Bad Thing About A Good Memory
TTITLE12=Jill King - Hand Me Down Heartache
TTITLE13=Brad and Shelly - Legally
TTITLE14=Sherrié Austin - Streets of Heaven
TTITLE15=TC Taylor - Mexican Radio
TTITLE16=Clinton Gregory - Writings on the Wall
TTITLE17=Tim Wilson - Booty Man
EXTD=YEAR: 2003 ID3G:   2
EXTT0=
EXTT1=
EXTT2=
EXTT3=
EXTT4=
EXTT5=
EXTT6=
EXTT7=
EXTT8=
EXTT9=
EXTT10=
EXTT11=
EXTT12=
EXTT13=
EXTT14=
EXTT15=
EXTT16=
EXTT17=
PLAYORDER=
